<?xml version="1.0" encoding="UTF-8"?>
<svg id="Layer_2" data-name="Layer 2" xmlns="http://www.w3.org/2000/svg" viewBox="0 0 511.38 606.96">
  <defs>
    <style>
      .cls-1 {
        fill: #1e65f1;
        stroke-width: 0px;
      }
    </style>
  </defs>
  <g id="Livello_1" data-name="Livello 1">
    <path class="cls-1" d="M228.7,377.63v31.48h31.48v-31.48h-31.48ZM323.7,361.91v62.97h23.66v-62.97h-23.66ZM323.7,361.91v62.97h23.66v-62.97h-23.66ZM228.7,377.63v31.48h31.48v-31.48h-31.48ZM494.03,361.91c9.95-34.49,15.6-71.37,17.35-110.17-1.88.04-3.8.04-5.69.04-101.98,0-191.95-33.41-245.51-84.37-53.56,50.97-143.54,84.37-245.51,84.37-4.93,0-9.83-.08-14.68-.25,1.71,38.88,7.36,75.8,17.31,110.38h69.74v62.97h-45.53c39.8,80.53,109.25,143.66,214.15,182.08,104.9-38.42,174.35-101.52,214.19-182.08h-44.44v-62.97h68.61ZM197.26,432.74c0,4.35-3.55,7.86-7.9,7.86h-78.69c-4.31,0-7.86-3.51-7.86-7.86v-78.69c0-4.35,3.55-7.86,7.86-7.86h78.69c4.35,0,7.9,3.51,7.9,7.86v78.69ZM275.91,416.97c0,4.35-3.51,7.9-7.86,7.9h-55.06v-62.97h55.06c4.35,0,7.86,3.51,7.86,7.86v47.2ZM409.66,432.74c0,4.35-3.51,7.86-7.86,7.86h-86.55c-4.35,0-7.86-3.51-7.86-7.86v-78.69c0-4.35,3.51-7.86,7.86-7.86h86.55c4.35,0,7.86,3.51,7.86,7.86v78.69ZM323.7,424.88h23.66v-62.97h-23.66v62.97ZM228.7,409.11h31.48v-31.48h-31.48v31.48ZM228.7,377.63v31.48h31.48v-31.48h-31.48ZM228.7,377.63v31.48h31.48v-31.48h-31.48ZM417.53,157.33v53.64c-22.33-4.85-43.48-11.58-62.92-19.94v-33.7c0-52.05-42.35-94.41-94.41-94.41s-94.41,42.35-94.41,94.41v33.7c-19.44,8.36-40.64,15.09-62.97,19.94v-53.64C102.82,70.58,173.44,0,260.2,0s157.33,70.58,157.33,157.33Z"/>
  </g>
</svg>