<?xml version="1.0" encoding="UTF-8"?>
<svg id="Layer_2" data-name="Layer 2" xmlns="http://www.w3.org/2000/svg" viewBox="0 0 969.9 295.28">
  <defs>
    <style>
      .cls-1 {
        fill: #fff;
        stroke-width: 0px;
      }
    </style>
  </defs>
  <g id="Livello_1" data-name="Livello 1">
    <g>
      <path class="cls-1" d="M111.26,183.71v15.32h15.32v-15.32h-15.32ZM157.47,176.06v30.63h11.51v-30.63h-11.51ZM157.47,176.06v30.63h11.51v-30.63h-11.51ZM111.26,183.71v15.32h15.32v-15.32h-15.32ZM240.34,176.06c4.84-16.78,7.59-34.72,8.44-53.6-.92.02-1.85.02-2.77.02-49.61,0-93.38-16.25-119.44-41.05-26.06,24.79-69.83,41.05-119.44,41.05-2.4,0-4.78-.04-7.14-.12.83,18.92,3.58,36.88,8.42,53.7h33.93v30.63h-22.15c19.36,39.18,53.15,69.89,104.18,88.58,51.03-18.69,84.82-49.39,104.2-88.58h-21.62v-30.63h33.38ZM95.97,210.52c0,2.12-1.73,3.82-3.84,3.82h-38.28c-2.1,0-3.82-1.71-3.82-3.82v-38.28c0-2.12,1.73-3.82,3.82-3.82h38.28c2.12,0,3.84,1.71,3.84,3.82v38.28ZM134.22,202.85c0,2.12-1.71,3.84-3.82,3.84h-26.79v-30.63h26.79c2.12,0,3.82,1.71,3.82,3.82v22.96ZM199.29,210.52c0,2.12-1.71,3.82-3.82,3.82h-42.1c-2.12,0-3.82-1.71-3.82-3.82v-38.28c0-2.12,1.71-3.82,3.82-3.82h42.1c2.12,0,3.82,1.71,3.82,3.82v38.28ZM157.47,206.7h11.51v-30.63h-11.51v30.63ZM111.26,199.03h15.32v-15.32h-15.32v15.32ZM111.26,183.71v15.32h15.32v-15.32h-15.32ZM111.26,183.71v15.32h15.32v-15.32h-15.32ZM203.12,76.54v26.1c-10.86-2.36-21.15-5.63-30.61-9.7v-16.39c0-25.32-20.6-45.93-45.93-45.93s-45.93,20.6-45.93,45.93v16.39c-9.46,4.07-19.77,7.34-30.63,9.7v-26.1C50.02,34.33,84.38,0,126.58,0s76.54,34.33,76.54,76.54Z"/>
      <g>
        <path class="cls-1" d="M326.82,84.19c19.78,0,32.21,10.95,32.21,28.36h-20.03c0-6.47-4.85-10.45-12.44-10.45-8.21,0-13.43,3.73-13.43,9.82,0,5.6,2.86,8.33,9.33,9.7l13.8,2.86c16.42,3.36,24.25,11.19,24.25,25.75,0,17.78-13.93,29.35-35.08,29.35s-33.83-11.07-33.83-28.36h20.02c0,6.72,4.97,10.45,13.93,10.45s14.8-3.61,14.8-9.45c0-5.1-2.36-7.71-8.46-8.96l-14.06-2.86c-16.42-3.36-24.87-12.69-24.87-27.74,0-16.67,14.05-28.48,33.83-28.48Z"/>
        <path class="cls-1" d="M368.11,146.75c0-19.4,13.06-32.96,31.84-32.96s31.71,12.81,31.71,33.09v4.85l-45.15.25c1.12,8.21,5.72,12.07,14.18,12.07,7.22,0,12.32-2.61,13.68-7.09h17.53c-2.24,13.8-14.55,22.64-31.59,22.64-18.78,0-32.21-13.68-32.21-32.83ZM386.76,140.16h25.87c0-6.59-4.85-10.82-12.57-10.82s-11.81,3.36-13.3,10.82Z"/>
        <path class="cls-1" d="M471.45,113.79c18.4,0,30.6,10.08,31.84,26.37h-19.28c-1.37-6.22-5.22-9.2-11.82-9.2-8.08,0-13.3,6.1-13.3,15.67s4.85,15.79,13.06,15.79c6.72,0,10.82-3.11,12.06-9.2h19.28c-1.24,15.67-13.93,26.37-31.34,26.37-19.65,0-32.34-13.06-32.34-32.96s13.18-32.84,31.84-32.84Z"/>
        <path class="cls-1" d="M574.18,115.78v62.19h-18.03l-1.24-6.97c-3.86,5.1-11.57,8.58-19.03,8.58-14.17,0-22.88-9.45-22.88-24.75v-39.05h19.15v32.09c0,10.2,3.48,14.68,11.32,14.68s11.56-4.23,11.56-14.43v-32.34h19.15Z"/>
        <path class="cls-1" d="M631.39,133.81h-6.09c-10.95,0-17.53,4.85-17.53,17.16v26.99h-19.15v-62.06h18.03l1,9.2c2.61-6.1,8.09-10.2,16.42-10.2,2.24,0,4.73.25,7.34.87v18.04Z"/>
        <path class="cls-1" d="M635.86,146.75c0-19.4,13.06-32.96,31.84-32.96s31.71,12.81,31.71,33.09v4.85l-45.15.25c1.12,8.21,5.72,12.07,14.18,12.07,7.22,0,12.32-2.61,13.68-7.09h17.54c-2.24,13.8-14.55,22.64-31.59,22.64-18.78,0-32.21-13.68-32.21-32.83ZM654.52,140.16h25.87c0-6.59-4.85-10.82-12.56-10.82s-11.82,3.36-13.31,10.82Z"/>
        <path class="cls-1" d="M713.09,177.97v-92.04h35.57c22.39,0,35.07,10.82,35.07,29.85,0,11.94-5.1,20.4-15.3,25.62l16.17,36.57h-22.01l-13.81-32.21h-15.55v32.21h-20.15ZM733.24,128.09h15.3c8.83,0,13.93-4.48,13.93-12.31s-4.85-11.94-13.8-11.94h-15.42v24.25Z"/>
        <path class="cls-1" d="M794.8,95.13c0-6.1,4.85-10.82,10.94-10.82s10.82,4.73,10.82,10.82-4.85,10.95-10.82,10.95-10.94-4.85-10.94-10.95ZM796.29,115.78h19.15v62.19h-19.15v-62.19Z"/>
        <path class="cls-1" d="M826.51,147.24c0-19.77,11.82-33.46,30.72-33.46,7.71,0,15.05,3.11,18.65,7.71v-37.31h19.15v93.78h-18.03l-1-7.96c-3.36,5.72-11.07,9.58-20.02,9.58-17.91,0-29.48-12.69-29.48-32.34ZM875.76,146.5c0-9.33-6.22-15.55-15.18-15.55s-14.8,6.34-14.8,15.55,5.72,15.55,14.8,15.55,15.18-6.22,15.18-15.55Z"/>
        <path class="cls-1" d="M906.1,146.75c0-19.4,13.06-32.96,31.84-32.96s31.71,12.81,31.71,33.09v4.85l-45.15.25c1.12,8.21,5.72,12.07,14.18,12.07,7.22,0,12.32-2.61,13.68-7.09h17.53c-2.24,13.8-14.55,22.64-31.59,22.64-18.78,0-32.21-13.68-32.21-32.83ZM924.76,140.16h25.87c0-6.59-4.85-10.82-12.57-10.82s-11.81,3.36-13.3,10.82Z"/>
        <path class="cls-1" d="M308.33,258.8h24.22v12.44h-37.66v-61.38h13.44v48.94Z"/>
        <path class="cls-1" d="M364.63,272.23c-17.75,0-29.94-12.94-29.94-31.68s12.28-31.77,30.02-31.77,30.11,12.94,30.11,31.68-12.36,31.77-30.19,31.77ZM364.8,221.72c-9.95,0-15.93,7.05-15.93,18.74s5.97,18.83,15.93,18.83,15.84-7.21,15.84-18.83-5.97-18.74-15.84-18.74Z"/>
        <path class="cls-1" d="M431.54,208.78c14.85,0,25.55,7.8,27.95,21.98h-14.1c-1.99-6.22-6.88-9.54-14.02-9.54-9.79,0-16.34,7.46-16.34,19.33,0,12.69,6.64,19.16,16.09,19.16,7.63,0,13.44-3.73,14.35-10.62h-15.18v-11.78h29.36v8.21c0,13.1-10.28,26.71-28.61,26.71s-30.28-12.52-30.28-31.68,12.11-31.77,30.77-31.77Z"/>
        <path class="cls-1" d="M482.86,271.24h-13.44v-61.38h13.44v61.38Z"/>
        <path class="cls-1" d="M514.78,208.7c13.19,0,21.48,7.3,21.48,18.91h-13.35c0-4.31-3.24-6.97-8.29-6.97-5.48,0-8.96,2.49-8.96,6.55,0,3.73,1.91,5.56,6.22,6.47l9.2,1.91c10.95,2.24,16.17,7.46,16.17,17.17,0,11.86-9.29,19.57-23.39,19.57s-22.56-7.38-22.56-18.91h13.35c0,4.48,3.31,6.97,9.29,6.97s9.87-2.41,9.87-6.31c0-3.4-1.58-5.14-5.64-5.97l-9.37-1.91c-10.95-2.24-16.59-8.46-16.59-18.5,0-11.12,9.37-18.99,22.56-18.99Z"/>
        <path class="cls-1" d="M540.56,209.86h48.27v12.44h-17.42v48.94h-13.44v-48.94h-17.42v-12.44Z"/>
        <path class="cls-1" d="M610.29,271.24h-13.44v-61.38h13.44v61.38Z"/>
        <path class="cls-1" d="M619.65,240.63c0-19.16,12.19-31.77,30.52-31.77,15.34,0,26.38,8.79,28.28,22.56h-14.18c-1.82-6.14-7.05-9.62-14.43-9.62-9.95,0-16.01,7.05-16.01,18.75s6.14,18.74,16.01,18.74c7.55,0,13.11-3.73,14.77-9.79h13.93c-2.16,13.69-13.6,22.73-28.95,22.73-18.41,0-29.94-12.19-29.94-31.6Z"/>
        <path class="cls-1" d="M706.63,208.7c13.19,0,21.48,7.3,21.48,18.91h-13.35c0-4.31-3.24-6.97-8.29-6.97-5.48,0-8.96,2.49-8.96,6.55,0,3.73,1.91,5.56,6.22,6.47l9.2,1.91c10.95,2.24,16.17,7.46,16.17,17.17,0,11.86-9.29,19.57-23.39,19.57s-22.56-7.38-22.56-18.91h13.35c0,4.48,3.31,6.97,9.29,6.97s9.87-2.41,9.87-6.31c0-3.4-1.58-5.14-5.64-5.97l-9.37-1.91c-10.95-2.24-16.59-8.46-16.59-18.5,0-11.12,9.37-18.99,22.56-18.99Z"/>
      </g>
    </g>
  </g>
</svg>